# xmcd
#
# Track frame offsets:
#  196
#  18403
#  33910
#  45132
#  60938
#  72380
#  87344
#  101578
#  117309
#  135734
#  148831
#  165721
#  181706
#  191655
#  205436
#  223618
#  235068
#  251534
#  262428
#  287977
#  299446
#  319050
#
# Disc length: 4498 seconds
#
# Revision: 0
# Processed by: cddbd v1.5.1PL2 Copyright (c) Steve Scherf et al.
# Submitted via: Collectorz.com_Music_Collector 6.10
#
DISCID=50119016
DTITLE=Davies, Gail - The Songwriter Sessions [CD2)
DYEAR=1900
DGENRE=General Country
TTITLE0=Ready To Fall in Love Again
TTITLE1=Wedding Invitation
TTITLE2=It's No Wonder I Feel Blue
TTITLE3=Burning in Hell For You
TTITLE4=What Can I Say
TTITLE5=I Need My Baby Back
TTITLE6=He Comes To Me For the Answers
TTITLE7=In the Worst Way
TTITLE8=I Don't Know
TTITLE9=Boys Like You
TTITLE10=Not a Day Goes By
TTITLE11=The Other Side of Love
TTITLE12=Love Is Living Around Us
TTITLE13=Just Can't Satisfy You
TTITLE14=Grandma's Song
TTITLE15=Your Mamma Works So Hard
TTITLE16=Careless Love
TTITLE17=Holdin' Out For You
TTITLE18=Lean on You
TTITLE19=Sorry That You're Leavin'
TTITLE20=Drifting Further Away
TTITLE21=I Will Rise And Shine Again
EXTD=
EXTT0=
EXTT1=
EXTT2=
EXTT3=
EXTT4=
EXTT5=
EXTT6=
EXTT7=
EXTT8=
EXTT9=
EXTT10=
EXTT11=
EXTT12=
EXTT13=
EXTT14=
EXTT15=
EXTT16=
EXTT17=
EXTT18=
EXTT19=
EXTT20=
EXTT21=
PLAYORDER=
